<svg width="1440" height="32" viewBox="0 0 1440 32" fill="none" xmlns="http://www.w3.org/2000/svg">
<rect width="1440" height="32" fill="black"/>
<path d="M288.667 15.2615V10.7281C288.667 9.72812 288.24 9.32812 287.18 9.32812H284.487C283.427 9.32812 283 9.72812 283 10.7281V15.2615C283 16.2615 283.427 16.6615 284.487 16.6615H287.18C288.24 16.6615 288.667 16.2615 288.667 15.2615Z" stroke="#EB4C6B" stroke-linecap="round" stroke-linejoin="round"/>
<path d="M288.667 21.2719V20.0719C288.667 19.0719 288.24 18.6719 287.18 18.6719H284.487C283.427 18.6719 283 19.0719 283 20.0719V21.2719C283 22.2719 283.427 22.6719 284.487 22.6719H287.18C288.24 22.6719 288.667 22.2719 288.667 21.2719Z" stroke="#EB4C6B" stroke-linecap="round" stroke-linejoin="round"/>
<path d="M281.003 16.7281V21.2615C281.003 22.2615 280.576 22.6615 279.516 22.6615H276.823C275.763 22.6615 275.336 22.2615 275.336 21.2615V16.7281C275.336 15.7281 275.763 15.3281 276.823 15.3281H279.516C280.576 15.3281 281.003 15.7281 281.003 16.7281Z" stroke="#EB4C6B" stroke-linecap="round" stroke-linejoin="round"/>
<path d="M281.003 10.7281V11.9281C281.003 12.9281 280.576 13.3281 279.516 13.3281H276.823C275.763 13.3281 275.336 12.9281 275.336 11.9281V10.7281C275.336 9.72812 275.763 9.32812 276.823 9.32812H279.516C280.576 9.32812 281.003 9.72812 281.003 10.7281Z" stroke="#EB4C6B" stroke-linecap="round" stroke-linejoin="round"/>
<path d="M300.96 20V11.6H301.884V19.088H305.736V20H300.96ZM311.598 17.708V16.052C311.598 15.02 310.878 14.504 310.074 14.504C309.27 14.504 308.55 15.02 308.55 16.052V17.708C308.55 18.74 309.27 19.256 310.074 19.256C310.878 19.256 311.598 18.74 311.598 17.708ZM312.498 16.064V17.696C312.498 19.52 311.226 20.12 310.074 20.12C308.922 20.12 307.65 19.52 307.65 17.696V16.064C307.65 14.24 308.922 13.64 310.074 13.64C311.226 13.64 312.498 14.24 312.498 16.064ZM316.034 13.808V14.456C316.346 13.952 316.994 13.7 317.558 13.7H317.954V14.564H317.558C316.754 14.564 316.034 15.08 316.034 16.112V20H315.134V13.808H316.034ZM322.293 19.256C323.001 19.256 323.637 18.86 323.781 18.056H324.705C324.549 19.604 323.373 20.12 322.293 20.12C321.141 20.12 319.869 19.52 319.869 17.696V16.064C319.869 14.24 321.141 13.64 322.293 13.64C323.445 13.64 324.717 14.24 324.717 16.064V17.108H320.769V17.708C320.769 18.74 321.489 19.256 322.293 19.256ZM323.817 16.28V16.052C323.817 15.02 323.097 14.504 322.293 14.504C321.489 14.504 320.769 15.02 320.769 16.052V16.28H323.817ZM335.731 20H334.831V15.98C334.831 15.056 334.111 14.504 333.403 14.504C332.671 14.504 331.963 15.056 331.963 16.052V20H331.063V15.98C331.063 15.056 330.343 14.504 329.635 14.504C328.903 14.504 328.195 15.056 328.195 16.052V20H327.295V13.808H328.195V14.396C328.495 13.892 329.179 13.64 329.635 13.64C330.331 13.64 331.087 13.928 331.507 14.612C331.927 13.928 332.695 13.64 333.391 13.64C334.507 13.64 335.731 14.312 335.731 16.064V20ZM343.038 11.6V12.764H342.138V11.6H343.038ZM343.038 13.808V20H342.138V13.808H343.038ZM348.258 20.12C347.694 20.12 347.046 19.868 346.734 19.364V22.208H345.834V13.808H346.734V14.396C347.046 13.892 347.694 13.64 348.258 13.64C349.41 13.64 350.682 14.24 350.682 16.064V17.696C350.682 19.52 349.41 20.12 348.258 20.12ZM349.782 17.708V16.052C349.782 15.02 349.062 14.504 348.258 14.504C347.454 14.504 346.734 15.02 346.734 16.052V17.708C346.734 18.74 347.454 19.256 348.258 19.256C349.062 19.256 349.782 18.74 349.782 17.708ZM357.394 15.62H356.47C356.362 14.9 355.882 14.504 355.114 14.504C354.442 14.504 353.95 14.84 353.95 15.404C353.95 15.92 354.298 16.148 354.802 16.268L355.966 16.556C356.902 16.784 357.55 17.252 357.55 18.392C357.55 19.616 356.626 20.12 355.366 20.12C354.07 20.12 352.978 19.52 352.882 18.02H353.806C353.89 18.896 354.538 19.256 355.366 19.256C356.23 19.256 356.626 18.908 356.638 18.368C356.638 17.972 356.458 17.624 355.774 17.456L354.562 17.156C353.89 17 353.038 16.544 353.038 15.44C353.038 14.3 353.986 13.64 355.126 13.64C356.374 13.64 357.298 14.24 357.394 15.62ZM362.267 20.12C361.247 20.12 359.879 19.568 359.879 17.732V13.808H360.779V17.672C360.779 18.776 361.535 19.256 362.267 19.256C363.023 19.256 363.755 18.728 363.755 17.708V13.808H364.655V20H363.755V19.364C363.443 19.856 362.795 20.12 362.267 20.12ZM375.891 20H374.991V15.98C374.991 15.056 374.271 14.504 373.563 14.504C372.831 14.504 372.123 15.056 372.123 16.052V20H371.223V15.98C371.223 15.056 370.503 14.504 369.795 14.504C369.063 14.504 368.355 15.056 368.355 16.052V20H367.455V13.808H368.355V14.396C368.655 13.892 369.339 13.64 369.795 13.64C370.491 13.64 371.247 13.928 371.667 14.612C372.087 13.928 372.855 13.64 373.551 13.64C374.667 13.64 375.891 14.312 375.891 16.064V20ZM384.554 20.12C383.402 20.12 382.13 19.52 382.13 17.696V16.064C382.13 14.24 383.402 13.64 384.554 13.64C385.118 13.64 385.766 13.892 386.078 14.396V11.6H386.978V20H386.078V19.364C385.766 19.868 385.118 20.12 384.554 20.12ZM383.03 16.052V17.708C383.03 18.74 383.75 19.256 384.554 19.256C385.358 19.256 386.078 18.74 386.078 17.708V16.052C386.078 15.02 385.358 14.504 384.554 14.504C383.75 14.504 383.03 15.02 383.03 16.052ZM393.559 17.708V16.052C393.559 15.02 392.839 14.504 392.035 14.504C391.231 14.504 390.511 15.02 390.511 16.052V17.708C390.511 18.74 391.231 19.256 392.035 19.256C392.839 19.256 393.559 18.74 393.559 17.708ZM394.459 16.064V17.696C394.459 19.52 393.187 20.12 392.035 20.12C390.883 20.12 389.611 19.52 389.611 17.696V16.064C389.611 14.24 390.883 13.64 392.035 13.64C393.187 13.64 394.459 14.24 394.459 16.064ZM397.971 11.6V18.596C397.971 18.992 398.115 19.136 398.547 19.136H398.739V20H398.547C397.395 20 397.071 19.58 397.071 18.524V11.6H397.971ZM404.922 17.708V16.052C404.922 15.02 404.202 14.504 403.398 14.504C402.594 14.504 401.874 15.02 401.874 16.052V17.708C401.874 18.74 402.594 19.256 403.398 19.256C404.202 19.256 404.922 18.74 404.922 17.708ZM405.822 16.064V17.696C405.822 19.52 404.55 20.12 403.398 20.12C402.246 20.12 400.974 19.52 400.974 17.696V16.064C400.974 14.24 402.246 13.64 403.398 13.64C404.55 13.64 405.822 14.24 405.822 16.064ZM409.359 13.808V14.456C409.671 13.952 410.319 13.7 410.883 13.7H411.279V14.564H410.883C410.079 14.564 409.359 15.08 409.359 16.112V20H408.459V13.808H409.359Z" fill="#EB4C6B"/>
<path d="M665.667 15.2615V10.7281C665.667 9.72812 665.24 9.32812 664.18 9.32812H661.487C660.427 9.32812 660 9.72812 660 10.7281V15.2615C660 16.2615 660.427 16.6615 661.487 16.6615H664.18C665.24 16.6615 665.667 16.2615 665.667 15.2615Z" stroke="#EB4C6B" stroke-linecap="round" stroke-linejoin="round"/>
<path d="M665.667 21.2719V20.0719C665.667 19.0719 665.24 18.6719 664.18 18.6719H661.487C660.427 18.6719 660 19.0719 660 20.0719V21.2719C660 22.2719 660.427 22.6719 661.487 22.6719H664.18C665.24 22.6719 665.667 22.2719 665.667 21.2719Z" stroke="#EB4C6B" stroke-linecap="round" stroke-linejoin="round"/>
<path d="M658.003 16.7281V21.2615C658.003 22.2615 657.576 22.6615 656.516 22.6615H653.823C652.763 22.6615 652.336 22.2615 652.336 21.2615V16.7281C652.336 15.7281 652.763 15.3281 653.823 15.3281H656.516C657.576 15.3281 658.003 15.7281 658.003 16.7281Z" stroke="#EB4C6B" stroke-linecap="round" stroke-linejoin="round"/>
<path d="M658.003 10.7281V11.9281C658.003 12.9281 657.576 13.3281 656.516 13.3281H653.823C652.763 13.3281 652.336 12.9281 652.336 11.9281V10.7281C652.336 9.72812 652.763 9.32812 653.823 9.32812H656.516C657.576 9.32812 658.003 9.72812 658.003 10.7281Z" stroke="#EB4C6B" stroke-linecap="round" stroke-linejoin="round"/>
<path d="M677.96 20V11.6H678.884V19.088H682.736V20H677.96ZM688.598 17.708V16.052C688.598 15.02 687.878 14.504 687.074 14.504C686.27 14.504 685.55 15.02 685.55 16.052V17.708C685.55 18.74 686.27 19.256 687.074 19.256C687.878 19.256 688.598 18.74 688.598 17.708ZM689.498 16.064V17.696C689.498 19.52 688.226 20.12 687.074 20.12C685.922 20.12 684.65 19.52 684.65 17.696V16.064C684.65 14.24 685.922 13.64 687.074 13.64C688.226 13.64 689.498 14.24 689.498 16.064ZM693.034 13.808V14.456C693.346 13.952 693.994 13.7 694.558 13.7H694.954V14.564H694.558C693.754 14.564 693.034 15.08 693.034 16.112V20H692.134V13.808H693.034ZM699.293 19.256C700.001 19.256 700.637 18.86 700.781 18.056H701.705C701.549 19.604 700.373 20.12 699.293 20.12C698.141 20.12 696.869 19.52 696.869 17.696V16.064C696.869 14.24 698.141 13.64 699.293 13.64C700.445 13.64 701.717 14.24 701.717 16.064V17.108H697.769V17.708C697.769 18.74 698.489 19.256 699.293 19.256ZM700.817 16.28V16.052C700.817 15.02 700.097 14.504 699.293 14.504C698.489 14.504 697.769 15.02 697.769 16.052V16.28H700.817ZM712.731 20H711.831V15.98C711.831 15.056 711.111 14.504 710.403 14.504C709.671 14.504 708.963 15.056 708.963 16.052V20H708.063V15.98C708.063 15.056 707.343 14.504 706.635 14.504C705.903 14.504 705.195 15.056 705.195 16.052V20H704.295V13.808H705.195V14.396C705.495 13.892 706.179 13.64 706.635 13.64C707.331 13.64 708.087 13.928 708.507 14.612C708.927 13.928 709.695 13.64 710.391 13.64C711.507 13.64 712.731 14.312 712.731 16.064V20ZM720.038 11.6V12.764H719.138V11.6H720.038ZM720.038 13.808V20H719.138V13.808H720.038ZM725.258 20.12C724.694 20.12 724.046 19.868 723.734 19.364V22.208H722.834V13.808H723.734V14.396C724.046 13.892 724.694 13.64 725.258 13.64C726.41 13.64 727.682 14.24 727.682 16.064V17.696C727.682 19.52 726.41 20.12 725.258 20.12ZM726.782 17.708V16.052C726.782 15.02 726.062 14.504 725.258 14.504C724.454 14.504 723.734 15.02 723.734 16.052V17.708C723.734 18.74 724.454 19.256 725.258 19.256C726.062 19.256 726.782 18.74 726.782 17.708ZM734.394 15.62H733.47C733.362 14.9 732.882 14.504 732.114 14.504C731.442 14.504 730.95 14.84 730.95 15.404C730.95 15.92 731.298 16.148 731.802 16.268L732.966 16.556C733.902 16.784 734.55 17.252 734.55 18.392C734.55 19.616 733.626 20.12 732.366 20.12C731.07 20.12 729.978 19.52 729.882 18.02H730.806C730.89 18.896 731.538 19.256 732.366 19.256C733.23 19.256 733.626 18.908 733.638 18.368C733.638 17.972 733.458 17.624 732.774 17.456L731.562 17.156C730.89 17 730.038 16.544 730.038 15.44C730.038 14.3 730.986 13.64 732.126 13.64C733.374 13.64 734.298 14.24 734.394 15.62ZM739.267 20.12C738.247 20.12 736.879 19.568 736.879 17.732V13.808H737.779V17.672C737.779 18.776 738.535 19.256 739.267 19.256C740.023 19.256 740.755 18.728 740.755 17.708V13.808H741.655V20H740.755V19.364C740.443 19.856 739.795 20.12 739.267 20.12ZM752.891 20H751.991V15.98C751.991 15.056 751.271 14.504 750.563 14.504C749.831 14.504 749.123 15.056 749.123 16.052V20H748.223V15.98C748.223 15.056 747.503 14.504 746.795 14.504C746.063 14.504 745.355 15.056 745.355 16.052V20H744.455V13.808H745.355V14.396C745.655 13.892 746.339 13.64 746.795 13.64C747.491 13.64 748.247 13.928 748.667 14.612C749.087 13.928 749.855 13.64 750.551 13.64C751.667 13.64 752.891 14.312 752.891 16.064V20ZM761.554 20.12C760.402 20.12 759.13 19.52 759.13 17.696V16.064C759.13 14.24 760.402 13.64 761.554 13.64C762.118 13.64 762.766 13.892 763.078 14.396V11.6H763.978V20H763.078V19.364C762.766 19.868 762.118 20.12 761.554 20.12ZM760.03 16.052V17.708C760.03 18.74 760.75 19.256 761.554 19.256C762.358 19.256 763.078 18.74 763.078 17.708V16.052C763.078 15.02 762.358 14.504 761.554 14.504C760.75 14.504 760.03 15.02 760.03 16.052ZM770.559 17.708V16.052C770.559 15.02 769.839 14.504 769.035 14.504C768.231 14.504 767.511 15.02 767.511 16.052V17.708C767.511 18.74 768.231 19.256 769.035 19.256C769.839 19.256 770.559 18.74 770.559 17.708ZM771.459 16.064V17.696C771.459 19.52 770.187 20.12 769.035 20.12C767.883 20.12 766.611 19.52 766.611 17.696V16.064C766.611 14.24 767.883 13.64 769.035 13.64C770.187 13.64 771.459 14.24 771.459 16.064ZM774.971 11.6V18.596C774.971 18.992 775.115 19.136 775.547 19.136H775.739V20H775.547C774.395 20 774.071 19.58 774.071 18.524V11.6H774.971ZM781.922 17.708V16.052C781.922 15.02 781.202 14.504 780.398 14.504C779.594 14.504 778.874 15.02 778.874 16.052V17.708C778.874 18.74 779.594 19.256 780.398 19.256C781.202 19.256 781.922 18.74 781.922 17.708ZM782.822 16.064V17.696C782.822 19.52 781.55 20.12 780.398 20.12C779.246 20.12 777.974 19.52 777.974 17.696V16.064C777.974 14.24 779.246 13.64 780.398 13.64C781.55 13.64 782.822 14.24 782.822 16.064ZM786.359 13.808V14.456C786.671 13.952 787.319 13.7 787.883 13.7H788.279V14.564H787.883C787.079 14.564 786.359 15.08 786.359 16.112V20H785.459V13.808H786.359Z" fill="#EB4C6B"/>
<path d="M1042.67 15.2615V10.7281C1042.67 9.72812 1042.24 9.32812 1041.18 9.32812H1038.49C1037.43 9.32812 1037 9.72812 1037 10.7281V15.2615C1037 16.2615 1037.43 16.6615 1038.49 16.6615H1041.18C1042.24 16.6615 1042.67 16.2615 1042.67 15.2615Z" stroke="#EB4C6B" stroke-linecap="round" stroke-linejoin="round"/>
<path d="M1042.67 21.2719V20.0719C1042.67 19.0719 1042.24 18.6719 1041.18 18.6719H1038.49C1037.43 18.6719 1037 19.0719 1037 20.0719V21.2719C1037 22.2719 1037.43 22.6719 1038.49 22.6719H1041.18C1042.24 22.6719 1042.67 22.2719 1042.67 21.2719Z" stroke="#EB4C6B" stroke-linecap="round" stroke-linejoin="round"/>
<path d="M1035 16.7281V21.2615C1035 22.2615 1034.58 22.6615 1033.52 22.6615H1030.82C1029.76 22.6615 1029.34 22.2615 1029.34 21.2615V16.7281C1029.34 15.7281 1029.76 15.3281 1030.82 15.3281H1033.52C1034.58 15.3281 1035 15.7281 1035 16.7281Z" stroke="#EB4C6B" stroke-linecap="round" stroke-linejoin="round"/>
<path d="M1035 10.7281V11.9281C1035 12.9281 1034.58 13.3281 1033.52 13.3281H1030.82C1029.76 13.3281 1029.34 12.9281 1029.34 11.9281V10.7281C1029.34 9.72812 1029.76 9.32812 1030.82 9.32812H1033.52C1034.58 9.32812 1035 9.72812 1035 10.7281Z" stroke="#EB4C6B" stroke-linecap="round" stroke-linejoin="round"/>
<path d="M1054.96 20V11.6H1055.88V19.088H1059.74V20H1054.96ZM1065.6 17.708V16.052C1065.6 15.02 1064.88 14.504 1064.07 14.504C1063.27 14.504 1062.55 15.02 1062.55 16.052V17.708C1062.55 18.74 1063.27 19.256 1064.07 19.256C1064.88 19.256 1065.6 18.74 1065.6 17.708ZM1066.5 16.064V17.696C1066.5 19.52 1065.23 20.12 1064.07 20.12C1062.92 20.12 1061.65 19.52 1061.65 17.696V16.064C1061.65 14.24 1062.92 13.64 1064.07 13.64C1065.23 13.64 1066.5 14.24 1066.5 16.064ZM1070.03 13.808V14.456C1070.35 13.952 1070.99 13.7 1071.56 13.7H1071.95V14.564H1071.56C1070.75 14.564 1070.03 15.08 1070.03 16.112V20H1069.13V13.808H1070.03ZM1076.29 19.256C1077 19.256 1077.64 18.86 1077.78 18.056H1078.7C1078.55 19.604 1077.37 20.12 1076.29 20.12C1075.14 20.12 1073.87 19.52 1073.87 17.696V16.064C1073.87 14.24 1075.14 13.64 1076.29 13.64C1077.44 13.64 1078.72 14.24 1078.72 16.064V17.108H1074.77V17.708C1074.77 18.74 1075.49 19.256 1076.29 19.256ZM1077.82 16.28V16.052C1077.82 15.02 1077.1 14.504 1076.29 14.504C1075.49 14.504 1074.77 15.02 1074.77 16.052V16.28H1077.82ZM1089.73 20H1088.83V15.98C1088.83 15.056 1088.11 14.504 1087.4 14.504C1086.67 14.504 1085.96 15.056 1085.96 16.052V20H1085.06V15.98C1085.06 15.056 1084.34 14.504 1083.63 14.504C1082.9 14.504 1082.19 15.056 1082.19 16.052V20H1081.29V13.808H1082.19V14.396C1082.49 13.892 1083.18 13.64 1083.63 13.64C1084.33 13.64 1085.09 13.928 1085.51 14.612C1085.93 13.928 1086.69 13.64 1087.39 13.64C1088.51 13.64 1089.73 14.312 1089.73 16.064V20ZM1097.04 11.6V12.764H1096.14V11.6H1097.04ZM1097.04 13.808V20H1096.14V13.808H1097.04ZM1102.26 20.12C1101.69 20.12 1101.05 19.868 1100.73 19.364V22.208H1099.83V13.808H1100.73V14.396C1101.05 13.892 1101.69 13.64 1102.26 13.64C1103.41 13.64 1104.68 14.24 1104.68 16.064V17.696C1104.68 19.52 1103.41 20.12 1102.26 20.12ZM1103.78 17.708V16.052C1103.78 15.02 1103.06 14.504 1102.26 14.504C1101.45 14.504 1100.73 15.02 1100.73 16.052V17.708C1100.73 18.74 1101.45 19.256 1102.26 19.256C1103.06 19.256 1103.78 18.74 1103.78 17.708ZM1111.39 15.62H1110.47C1110.36 14.9 1109.88 14.504 1109.11 14.504C1108.44 14.504 1107.95 14.84 1107.95 15.404C1107.95 15.92 1108.3 16.148 1108.8 16.268L1109.97 16.556C1110.9 16.784 1111.55 17.252 1111.55 18.392C1111.55 19.616 1110.63 20.12 1109.37 20.12C1108.07 20.12 1106.98 19.52 1106.88 18.02H1107.81C1107.89 18.896 1108.54 19.256 1109.37 19.256C1110.23 19.256 1110.63 18.908 1110.64 18.368C1110.64 17.972 1110.46 17.624 1109.77 17.456L1108.56 17.156C1107.89 17 1107.04 16.544 1107.04 15.44C1107.04 14.3 1107.99 13.64 1109.13 13.64C1110.37 13.64 1111.3 14.24 1111.39 15.62ZM1116.27 20.12C1115.25 20.12 1113.88 19.568 1113.88 17.732V13.808H1114.78V17.672C1114.78 18.776 1115.53 19.256 1116.27 19.256C1117.02 19.256 1117.75 18.728 1117.75 17.708V13.808H1118.65V20H1117.75V19.364C1117.44 19.856 1116.79 20.12 1116.27 20.12ZM1129.89 20H1128.99V15.98C1128.99 15.056 1128.27 14.504 1127.56 14.504C1126.83 14.504 1126.12 15.056 1126.12 16.052V20H1125.22V15.98C1125.22 15.056 1124.5 14.504 1123.79 14.504C1123.06 14.504 1122.35 15.056 1122.35 16.052V20H1121.45V13.808H1122.35V14.396C1122.65 13.892 1123.34 13.64 1123.79 13.64C1124.49 13.64 1125.25 13.928 1125.67 14.612C1126.09 13.928 1126.85 13.64 1127.55 13.64C1128.67 13.64 1129.89 14.312 1129.89 16.064V20ZM1138.55 20.12C1137.4 20.12 1136.13 19.52 1136.13 17.696V16.064C1136.13 14.24 1137.4 13.64 1138.55 13.64C1139.12 13.64 1139.77 13.892 1140.08 14.396V11.6H1140.98V20H1140.08V19.364C1139.77 19.868 1139.12 20.12 1138.55 20.12ZM1137.03 16.052V17.708C1137.03 18.74 1137.75 19.256 1138.55 19.256C1139.36 19.256 1140.08 18.74 1140.08 17.708V16.052C1140.08 15.02 1139.36 14.504 1138.55 14.504C1137.75 14.504 1137.03 15.02 1137.03 16.052ZM1147.56 17.708V16.052C1147.56 15.02 1146.84 14.504 1146.03 14.504C1145.23 14.504 1144.51 15.02 1144.51 16.052V17.708C1144.51 18.74 1145.23 19.256 1146.03 19.256C1146.84 19.256 1147.56 18.74 1147.56 17.708ZM1148.46 16.064V17.696C1148.46 19.52 1147.19 20.12 1146.03 20.12C1144.88 20.12 1143.61 19.52 1143.61 17.696V16.064C1143.61 14.24 1144.88 13.64 1146.03 13.64C1147.19 13.64 1148.46 14.24 1148.46 16.064ZM1151.97 11.6V18.596C1151.97 18.992 1152.12 19.136 1152.55 19.136H1152.74V20H1152.55C1151.4 20 1151.07 19.58 1151.07 18.524V11.6H1151.97ZM1158.92 17.708V16.052C1158.92 15.02 1158.2 14.504 1157.4 14.504C1156.59 14.504 1155.87 15.02 1155.87 16.052V17.708C1155.87 18.74 1156.59 19.256 1157.4 19.256C1158.2 19.256 1158.92 18.74 1158.92 17.708ZM1159.82 16.064V17.696C1159.82 19.52 1158.55 20.12 1157.4 20.12C1156.25 20.12 1154.97 19.52 1154.97 17.696V16.064C1154.97 14.24 1156.25 13.64 1157.4 13.64C1158.55 13.64 1159.82 14.24 1159.82 16.064ZM1163.36 13.808V14.456C1163.67 13.952 1164.32 13.7 1164.88 13.7H1165.28V14.564H1164.88C1164.08 14.564 1163.36 15.08 1163.36 16.112V20H1162.46V13.808H1163.36Z" fill="#EB4C6B"/>
</svg>
